<?xml version="1.0" encoding="utf-8"?>
<!-- Generator: Adobe Illustrator 24.1.0, SVG Export Plug-In . SVG Version: 6.00 Build 0)  -->
<svg version="1.1" id="图层_1" xmlns="http://www.w3.org/2000/svg" xmlns:xlink="http://www.w3.org/1999/xlink" x="0px" y="0px"
	 viewBox="0 0 226.8 226.8" style="enable-background:new 0 0 226.8 226.8;" xml:space="preserve">
<style type="text/css">
	.st0{fill:#CCCCCC;}
</style>
<path class="st0" d="M226.6,49.4l-114.7,66.2L0.1,51.1c1.1-16.9,15.1-30.3,32.3-30.3h162C211,20.8,224.7,33.3,226.6,49.4L226.6,49.4
	z M226.8,73.2v100.8c0,17.9-14.5,32.4-32.4,32.4h-162C14.5,206.3,0,191.8,0,173.9v-99l106.8,61.6c3.7,2.1,8.1,1.7,11.3-0.6
	c0.2-0.1,0.3-0.2,0.4-0.2C118.5,135.7,226.8,73.2,226.8,73.2z"/>
</svg>
